<?xml version="1.0" standalone="no"?>
<!DOCTYPE svg PUBLIC "-//W3C//DTD SVG 20010904//EN"
 "http://www.w3.org/TR/2001/REC-SVG-20010904/DTD/svg10.dtd">
<svg version="1.0" xmlns="http://www.w3.org/2000/svg"
 width="1354.000000pt" height="1354.000000pt" viewBox="0 0 1354.000000 1354.000000"
 preserveAspectRatio="xMidYMid meet">
<metadata>
Created by potrace 1.11, written by Peter Selinger 2001-2013
</metadata>
<g transform="translate(0.000000,1354.000000) scale(0.100000,-0.100000)"
fill="#000000" stroke="none">
<path d="M6375 13173 c-22 -1 -98 -8 -170 -13 -1055 -86 -2116 -459 -3006
-1055 -131 -88 -359 -255 -434 -319 l-30 -25 913 -1 912 0 0 -1090 0 -1090
730 0 730 0 0 -660 0 -660 -730 0 -730 0 0 -1858 c0 -1276 3 -1893 11 -1968
21 -209 71 -353 152 -441 99 -107 275 -161 582 -178 179 -10 626 23 700 52 13
4 15 -94 15 -765 l0 -769 -47 -7 c-286 -40 -594 -56 -1048 -57 -749 -1 -1184
68 -1550 246 -246 119 -378 229 -529 439 -112 156 -192 356 -238 596 l-22 115
-3 2298 -3 2297 -605 0 -605 0 0 660 0 660 605 0 605 0 0 1026 0 1026 -52 -44
c-95 -78 -418 -400 -544 -541 -721 -807 -1219 -1766 -1463 -2818 -63 -272
-107 -549 -142 -879 -17 -167 -23 -795 -10 -998 127 -1877 1050 -3576 2556
-4707 1419 -1066 3232 -1490 4999 -1169 1240 225 2407 827 3296 1701 l155 152
-2347 1 -2348 0 0 753 1 752 1884 2120 c1036 1166 1884 2123 1884 2128 1 4
-784 7 -1744 7 l-1745 0 0 745 0 745 2780 0 c2087 0 2780 3 2780 11 0 17 -170
333 -258 479 -519 864 -1249 1608 -2095 2138 -894 559 -1898 885 -2962 962
-126 9 -730 11 -830 3z"/>
<path d="M12968 7978 c-35 -40 -869 -980 -1853 -2088 -983 -1108 -1797 -2025
-1808 -2037 l-20 -23 1585 0 1585 0 80 167 c522 1084 727 2296 592 3498 -22
201 -76 536 -88 548 -4 4 -37 -25 -73 -65z"/>
<path d="M0 15 c0 -13 759 -15 6770 -15 6011 0 6770 2 6770 15 0 13 -759 15
-6770 15 -6011 0 -6770 -2 -6770 -15z"/>
</g>
</svg>
