<?xml version="1.0" standalone="no"?>
<!DOCTYPE svg PUBLIC "-//W3C//DTD SVG 20010904//EN"
 "http://www.w3.org/TR/2001/REC-SVG-20010904/DTD/svg10.dtd">
<svg version="1.0" xmlns="http://www.w3.org/2000/svg"
 width="1354.000000pt" height="1354.000000pt" viewBox="0 0 1354.000000 1354.000000"
 preserveAspectRatio="xMidYMid meet">
<metadata>
Created by potrace 1.11, written by Peter Selinger 2001-2013
</metadata>
<g transform="translate(0.000000,1354.000000) scale(0.100000,-0.100000)"
fill="#000000" stroke="none">
<path d="M6395 13170 c-701 -46 -1337 -185 -1975 -433 -506 -196 -1051 -501
-1489 -831 -73 -56 -142 -107 -152 -115 -11 -7 -19 -17 -19 -22 0 -5 392 -9
905 -9 l905 0 0 -1085 0 -1085 728 -2 727 -3 0 -665 0 -665 -728 -3 -727 -2 3
-1938 c3 -1930 3 -1937 24 -2027 32 -140 68 -219 129 -284 87 -94 232 -149
457 -172 156 -17 513 -6 687 20 74 12 141 21 148 21 9 0 12 -160 12 -769 l0
-769 -62 -11 c-240 -41 -776 -66 -1213 -57 -654 13 -1057 84 -1387 245 -393
192 -646 510 -743 934 -51 225 -49 97 -52 2539 l-4 2268 -602 2 -602 3 -3 668
-2 667 605 0 605 0 0 1011 0 1010 -30 -21 c-54 -38 -429 -411 -549 -545 -1340
-1498 -1896 -3525 -1510 -5505 351 -1799 1464 -3361 3064 -4299 185 -109 601
-314 795 -392 655 -263 1288 -409 1989 -459 195 -14 680 -14 871 0 825 59
1591 261 2341 617 607 288 1246 740 1709 1207 l115 116 -2348 0 -2347 0 1 753
0 752 757 851 c1717 1931 3007 3386 3010 3395 2 5 -674 9 -1742 9 l-1746 0 0
750 0 750 2780 0 c1529 0 2780 3 2780 7 0 15 -170 331 -253 468 -433 721 -989
1336 -1662 1840 -952 714 -2061 1138 -3270 1250 -199 19 -742 27 -930 15z"/>
<path d="M12808 7788 c-123 -139 -957 -1079 -1852 -2088 -896 -1009 -1636
-1843 -1644 -1852 -14 -17 61 -18 1562 -18 l1577 0 71 148 c324 676 518 1348
602 2082 51 439 51 991 0 1435 -24 213 -75 529 -87 541 -2 3 -105 -109 -229
-248z"/>
</g>
</svg>
